<svg height="24" viewBox="-3 0 512 512" width="24" xmlns="http://www.w3.org/2000/svg"><path class="icon-add-to-cart" d="M494.926 97.145c-9.492-10.84-23.02-16.813-38.09-16.813H343.05V15c0-8.285-6.715-15-15-15h-80.332c-8.285 0-15 6.715-15 15v65.332H92.402l-3.668-27.5C84.781 23.207 64.156 0 41.777 0H15C6.715 0 0 6.715 0 15s6.715 15 15 15h26.777c4.813 0 15.004 10.176 17.22 26.797l42.937 322.039c1.89 14.195 9.183 27.484 20.535 37.422 8.418 7.37 18.367 12.273 28.789 14.324a54.792 54.792 0 00-6.656 26.25c0 30.422 24.746 55.168 55.164 55.168s55.168-24.746 55.168-55.168a54.78 54.78 0 00-6.102-25.164h78.602a54.78 54.78 0 00-6.102 25.164c0 30.422 24.746 55.168 55.168 55.168 30.418 0 55.164-24.746 55.164-55.168 0-9.062-2.21-17.613-6.098-25.164h39.301c8.281 0 15-6.719 15-15 0-8.285-6.719-15-15-15h-302.59c-14.656 0-28.672-12.273-30.609-26.8l-3.137-23.536H424.7c14.32 0 28.457-5.473 39.809-15.406 11.347-9.938 18.64-23.23 20.539-37.426l21.512-161.367c1.992-14.942-2.137-29.145-11.633-39.988zM224.934 456.832c0 13.879-11.29 25.168-25.168 25.168-13.875 0-25.164-11.29-25.164-25.168 0-13.875 11.289-25.164 25.164-25.164 13.879 0 25.168 11.289 25.168 25.164zm176.734 0c0 13.879-11.29 25.168-25.168 25.168-13.875 0-25.164-11.29-25.164-25.168 0-13.875 11.289-25.164 25.164-25.164 13.879 0 25.168 11.289 25.168 25.164zM262.718 30h50.333v65.16c0 .059-.008.113-.008.172 0 .059.008.117.008.176v80.16c0 8.281 6.715 15 15 15h5.289l-44.559 44.203-44.558-44.203h3.496c8.285 0 15-6.719 15-15zM476.82 133.164l-21.51 161.371c-1.938 14.524-15.954 26.797-30.61 26.797H124.531l-28.129-211H232.72v50.336H207.8a14.996 14.996 0 00-13.867 9.285 14.997 14.997 0 003.304 16.363l80.98 80.332c2.923 2.903 6.743 4.352 10.563 4.352s7.64-1.45 10.563-4.352l80.98-80.332a14.997 14.997 0 003.305-16.363 14.996 14.996 0 00-13.867-9.285H343.05v-50.336h113.785c6.297 0 11.809 2.336 15.52 6.574 3.71 4.242 5.296 10.016 4.464 16.258zm0 0"/></svg>