<svg height="512pt" viewBox="0 0 512 512" width="512pt" xmlns="http://www.w3.org/2000/svg"><path d="M429.063 0H82.938C37.133 0 0 37.133 0 82.938v346.125C0 474.866 37.133 512 82.938 512h346.125C474.866 512 512 474.867 512 429.062V82.938C512 37.133 474.867 0 429.062 0zm0 0" fill="#b2e59c"/><path d="M286.508 0H82.938C37.133 0 0 37.133 0 82.938v346.125C0 474.866 37.133 512 82.938 512h106.796c-84.058-100.805-52.41-287.09 11.078-359.762C262.123 82.066 280.837 25.898 286.509 0zm0 0" fill="#9ad880"/><path d="M233.473 382.277a41.2 41.2 0 01-28.328-11.285L97.25 268.855c-16.527-15.644-17.242-41.726-1.598-58.253 15.645-16.528 41.723-17.247 58.254-1.598l77.192 73.07 124.68-138.691c15.214-16.926 41.269-18.309 58.195-3.098 16.922 15.215 18.308 41.27 3.093 58.195L264.117 368.617a41.22 41.22 0 01-30.644 13.66zm0 0" fill="#fff"/><path d="M153.906 209.004c-16.531-15.649-42.61-14.93-58.254 1.598-15.644 16.527-14.93 42.609 1.598 58.253l43.746 41.415c3.574-32.946 11.363-64.723 22.168-92.5zm0 0" fill="#ccf8ff"/></svg>