<svg viewBox="0 0 512 512" xmlns="http://www.w3.org/2000/svg" fill-rule="evenodd" clip-rule="evenodd" stroke-linejoin="round" stroke-miterlimit="2"><path class="cart-icon" d="M164.961 331.004h.023c.02 0 .039-.004.059-.004H437a15.003 15.003 0 0014.422-10.879l60-210a15.003 15.003 0 00-2.446-13.152A15.004 15.004 0 00497 91H130.367l-10.723-48.254A15.002 15.002 0 00105 31H15C6.715 31 0 37.715 0 46s6.715 15 15 15h77.969c1.898 8.551 51.312 230.918 54.156 243.711C131.184 311.641 120 327.535 120 346c0 24.812 20.187 45 45 45h272c8.285 0 15-6.715 15-15s-6.715-15-15-15H165c-8.27 0-15-6.731-15-15 0-8.258 6.707-14.977 14.961-14.996zM477.113 121l-51.43 180H177.031l-40-180h340.082zM150 436c0 24.812 20.187 45 45 45 24.812 0 45-20.188 45-45 0-24.813-20.188-45-45-45-24.813 0-45 20.187-45 45zm45-15c8.269 0 15 6.73 15 15 0 8.269-6.731 15-15 15-8.27 0-15-6.731-15-15 0-8.27 6.73-15 15-15zm167 15c0 24.812 20.187 45 45 45 24.812 0 45-20.188 45-45 0-24.813-20.188-45-45-45-24.813 0-45 20.187-45 45zm45-15c8.269 0 15 6.73 15 15 0 8.269-6.731 15-15 15-8.27 0-15-6.731-15-15 0-8.27 6.73-15 15-15z" fill="#555" fill-rule="nonzero"/></svg>