<svg viewBox="0 0 37 37" xmlns="http://www.w3.org/2000/svg" fill-rule="evenodd" clip-rule="evenodd" stroke-linejoin="round" stroke-miterlimit="2"><g fill="#e7253b" fill-rule="nonzero"><path d="M31.746 3.286h-1.628V.572h-2.714v2.714H9.493V.572H6.779v2.714H5.151a4.075 4.075 0 00-4.07 4.07v23.882a4.075 4.075 0 004.07 4.07h26.595a4.075 4.075 0 004.071-4.07V7.356a4.075 4.075 0 00-4.071-4.07zm1.357 27.952c0 .748-.609 1.356-1.357 1.356H5.151a1.358 1.358 0 01-1.357-1.356V13.327h29.309v17.911zm0-20.625H3.794V7.356c0-.748.609-1.357 1.357-1.357h1.628v2.714h2.714V5.999h17.911v2.714h2.714V5.999h1.628c.748 0 1.357.609 1.357 1.357v3.257z"/><path d="M6.237 16.176h2.714v2.714H6.237zm5.427 0h2.714v2.714h-2.714zm5.428 0h2.714v2.714h-2.714zm5.427 0h2.714v2.714h-2.714zm5.428 0h2.714v2.714h-2.714zm-21.71 5.428h2.714v2.714H6.237zm5.427 0h2.714v2.714h-2.714zm5.428 0h2.714v2.714h-2.714zm5.427 0h2.714v2.714h-2.714zM6.237 27.031h2.714v2.714H6.237zm5.427 0h2.714v2.714h-2.714zm5.428 0h2.714v2.714h-2.714zm5.427 0h2.714v2.714h-2.714zm5.428-5.427h2.714v2.714h-2.714z"/></g></svg>