<svg viewBox="0 0 78 760" xmlns="http://www.w3.org/2000/svg" fill-rule="evenodd" clip-rule="evenodd"><path d="M39.925 102.031v-34m0 334V128.676m1 586.358l-1-289.353" fill="none" stroke="#e7253b" stroke-width="2"/><circle cx="40.425" cy="119.665" r="17.5" fill="#e7253b"/><circle cx="40.425" cy="418.665" r="17.5" fill="#e7253b"/><circle cx="40.425" cy="731.665" r="17.5" fill="#e7253b"/><circle cx="40.925" cy="36.105" r="35" fill="#e7253b"/><path fill-rule="nonzero" d="M36.47 36.849h7.91v2.637h-7.91z"/><path d="M54.433 39.486h-7.416v1.318c0 .729-.59 1.319-1.319 1.319H35.152c-.729 0-1.319-.59-1.319-1.319v-1.318h-7.416a3.951 3.951 0 01-3.752-2.704l-4.74-14.223v28.792a3.96 3.96 0 003.955 3.955h37.09a3.96 3.96 0 003.955-3.955V22.56l-4.741 14.222a3.95 3.95 0 01-3.751 2.704z" fill-rule="nonzero"/><path d="M45.698 15.755H35.151a3.96 3.96 0 00-3.955 3.956v1.318H20.193l4.973 14.919c.18.539.683.901 1.251.901h7.416v-1.318c0-.729.59-1.319 1.318-1.319h10.547c.729 0 1.319.59 1.319 1.319v1.318h7.416c.568 0 1.071-.362 1.251-.901l4.973-14.919H49.653v-1.318a3.96 3.96 0 00-3.955-3.956zm-11.865 5.274v-1.318a1.32 1.32 0 011.318-1.319h10.547a1.32 1.32 0 011.319 1.319v1.318H33.833z" fill-rule="nonzero"/></svg>