<svg viewBox="0 0 30 40" xmlns="http://www.w3.org/2000/svg" fill-rule="evenodd" clip-rule="evenodd" stroke-linejoin="round" stroke-miterlimit="2"><g fill="#fff" fill-rule="nonzero"><path d="M27.655 9.56l-7.072-7.184a.7.7 0 00-.5-.211H5.233c-1.56 0-2.829 1.289-2.829 2.874v28.736c0 1.585 1.269 2.874 2.829 2.874h19.8c1.56 0 2.829-1.289 2.829-2.874V10.068a.726.726 0 00-.207-.508zM20.79 4.618l4.658 4.732h-3.243c-.78 0-1.415-.645-1.415-1.437V4.618zm5.658 29.157c0 .792-.635 1.437-1.415 1.437h-19.8c-.78 0-1.414-.645-1.414-1.437V5.039c0-.792.634-1.437 1.414-1.437h14.143v4.311c0 1.585 1.269 2.873 2.829 2.873h4.243v22.989z"/><path d="M18.739 23.255c-.655-.523-1.277-1.061-1.691-1.482a24.476 24.476 0 01-1.436-1.583c.65-2.042.936-3.095.936-3.656 0-2.385-.848-2.874-2.122-2.874-.967 0-2.121.511-2.121 2.942 0 1.072.578 2.374 1.723 3.886-.28.87-.609 1.872-.98 3.002a16.414 16.414 0 01-.576 1.51c-.166.075-.328.151-.484.23-.562.286-1.096.543-1.591.781-2.258 1.086-3.75 1.805-3.75 3.223 0 1.03 1.102 1.668 2.122 1.668 1.315 0 3.3-1.784 4.75-4.79 1.506-.603 3.377-1.05 4.854-1.33 1.184.925 2.491 1.809 3.125 1.809 1.753 0 2.121-1.03 2.121-1.893 0-1.699-1.91-1.699-2.829-1.699-.285 0-1.05.086-2.051.256zm-9.97 6.21c-.404 0-.678-.194-.707-.231 0-.509 1.495-1.229 2.941-1.925l.28-.134c-1.062 1.565-2.113 2.29-2.514 2.29zm4.95-12.863c0-1.505.46-1.505.707-1.505.5 0 .707 0 .707 1.437 0 .303-.199 1.06-.563 2.243-.555-.868-.851-1.613-.851-2.175zm.542 7.722c.044-.125.087-.251.129-.379l.709-2.165c.293.328.61.664.949 1.009.132.134.461.438.899.817-.872.193-1.799.432-2.686.718zm7.944.374c0 .323 0 .456-.656.461-.193-.042-.638-.309-1.188-.689.199-.023.347-.034.429-.034 1.045 0 1.342.104 1.415.262z"/></g></svg>