<svg viewBox="0 0 80 343" xmlns="http://www.w3.org/2000/svg" fill-rule="evenodd" clip-rule="evenodd"><ellipse cx="40.832" cy="38.829" rx="35.463" ry="35.003" fill="#e7253b"/><path d="M40.832 43.702l-15.113-4.761v7.952c0 3.675 6.769 6.656 15.118 6.656 8.348 0 15.118-2.981 15.118-6.656 0-.029-.01-.058-.01-.087v-7.865l-15.113 4.761z" fill-rule="nonzero"/><path d="M15.501 33.468l5.399 1.977.46-1.009 1.984-.172.283.301-1.702.413-.248.751c-.001 0-3.845 8.225-3.28 12.249 0 0 2.399 1.465 4.798 0l.637-11.001v-.916l3.57-.824-.252.635-2.662.886 1.231.45 15.113 4.761 15.113-4.761 10.218-3.74-25.331-9.974-25.331 9.974z" fill-rule="nonzero"/><path d="M38.806 107.924V72.803m0 217.75V134.014" fill="none" stroke="#e7253b" stroke-width="2.02"/><ellipse cx="39.312" cy="122.474" rx="17.732" ry="17.56" fill="#e7253b"/><ellipse cx="38.299" cy="306.107" rx="17.732" ry="17.56" fill="#e7253b"/></svg>